# xmcd
#
# Track frame offsets: 
#        150
#        24117
#        48940
#        81205
#        107854
#        129434
#        155494
#        179733
#        208677
#
# Disc length: 3096 seconds
#
# Revision: 0
# Processed by: cddbd v1.5.2PL0 Copyright (c) Steve Scherf et al.
# Submitted via: ExactAudioCopy v0.99pb5
#
DISCID=720c1609
DTITLE=Cam Van - Xin Mat Troi Ngu Yen
DYEAR=2007
DGENRE=Vietnamese
TTITLE0=Ca Dao Me 
TTITLE1=Thuong Mot Nguoi
TTITLE2=Mot Ngay Nhu Moi Ngay  
TTITLE3=Nhu Canh Vac Bay 
TTITLE4=Chieu Mot Minh Qua Pho
TTITLE5=Ru Em Tung Ngon Xuan Nong 
TTITLE6=Nghe Nhung Tan Phai  
TTITLE7=Loi Me Ru 
TTITLE8=Xin Mat Troi Ngu Yen 
EXTD=
EXTT0=
EXTT1=
EXTT2=
EXTT3=
EXTT4=
EXTT5=
EXTT6=
EXTT7=
EXTT8=
PLAYORDER=
